<svg id="svg" xmlns="http://www.w3.org/2000/svg" xmlns:xlink="http://www.w3.org/1999/xlink" width="400" height="266.25" viewBox="0, 0, 400,266.25"><g id="svgg"><path id="path0" d="M37.284 0.275 C 37.284 0.426,37.553 0.658,37.883 0.791 C 38.480 1.031,38.480 1.032,37.816 1.056 C 36.921 1.090,37.576 1.459,39.015 1.731 C 39.601 1.842,39.929 1.987,39.745 2.054 C 39.255 2.233,39.618 2.657,40.295 2.698 C 40.665 2.720,40.537 2.805,39.947 2.929 L 39.015 3.126 40.213 3.197 C 40.887 3.237,41.149 3.319,40.812 3.384 C 40.001 3.540,40.050 3.995,40.879 3.995 C 41.245 3.995,41.545 4.106,41.545 4.243 C 41.545 4.380,41.800 4.573,42.112 4.672 C 42.558 4.813,42.601 4.902,42.312 5.085 C 42.052 5.250,42.178 5.325,42.743 5.341 C 43.389 5.359,43.444 5.402,43.029 5.565 C 42.556 5.750,42.552 5.780,42.979 5.944 C 43.234 6.041,43.368 6.242,43.277 6.390 C 43.180 6.545,43.426 6.658,43.862 6.658 C 44.311 6.658,44.739 6.861,44.928 7.164 C 45.437 7.978,49.018 9.803,51.014 10.266 C 52.026 10.501,53.679 11.044,54.686 11.473 C 55.694 11.902,57.134 12.361,57.887 12.494 C 58.639 12.627,60.632 13.097,62.317 13.538 C 64.001 13.978,67.177 14.723,69.374 15.193 C 71.571 15.662,74.687 16.442,76.298 16.925 C 77.909 17.409,79.707 17.885,80.293 17.984 C 80.879 18.084,82.736 18.506,84.421 18.922 C 86.105 19.339,90.180 20.287,93.475 21.030 C 96.771 21.772,100.186 22.608,101.065 22.887 C 101.944 23.167,104.280 23.648,106.255 23.956 C 108.231 24.264,111.586 24.919,113.712 25.413 C 115.837 25.906,118.535 26.394,119.707 26.497 C 120.879 26.600,122.257 26.861,122.770 27.075 C 123.282 27.290,124.764 27.809,126.062 28.228 C 127.359 28.648,128.678 29.222,128.991 29.505 C 129.304 29.787,130.388 30.221,131.400 30.469 C 132.411 30.716,133.536 31.153,133.899 31.438 C 134.262 31.724,134.826 31.957,135.153 31.957 C 135.480 31.957,136.040 32.188,136.398 32.470 C 136.756 32.751,137.773 33.169,138.658 33.399 C 139.542 33.628,141.172 34.228,142.278 34.732 C 143.385 35.237,144.781 35.796,145.381 35.976 C 145.981 36.156,146.471 36.459,146.471 36.650 C 146.471 36.841,146.951 37.121,147.537 37.273 C 148.123 37.425,149.080 37.674,149.664 37.826 C 150.248 37.977,150.698 38.240,150.663 38.409 C 150.628 38.578,150.839 38.758,151.132 38.809 C 152.628 39.070,152.904 39.190,152.776 39.524 C 152.678 39.777,153.010 39.922,153.945 40.032 C 154.816 40.135,156.417 40.784,158.752 41.980 C 162.041 43.664,162.274 43.743,162.607 43.289 C 162.934 42.840,163.094 42.933,164.769 44.540 C 166.027 45.746,167.186 46.555,168.575 47.196 C 169.674 47.703,171.196 48.682,171.958 49.372 C 172.758 50.095,174.054 50.911,175.021 51.300 C 176.220 51.781,177.191 52.452,178.429 53.654 C 179.425 54.622,180.725 55.579,181.491 55.909 C 182.224 56.225,183.362 57.004,184.021 57.642 C 184.680 58.280,185.819 59.104,186.551 59.474 C 187.284 59.844,188.218 60.576,188.627 61.100 C 189.036 61.623,189.857 62.300,190.452 62.603 C 191.046 62.906,192.251 63.923,193.129 64.862 C 194.008 65.801,195.344 66.922,196.098 67.354 C 196.853 67.786,197.830 68.518,198.269 68.981 C 198.708 69.444,199.547 70.067,200.133 70.366 C 200.719 70.666,202.277 71.953,203.595 73.228 C 204.913 74.502,206.471 75.832,207.057 76.184 C 207.643 76.535,208.542 77.192,209.055 77.645 C 209.567 78.098,211.125 79.247,212.517 80.198 C 213.908 81.150,217.069 83.387,219.541 85.171 C 222.013 86.955,224.709 88.798,225.533 89.267 C 226.357 89.736,228.469 91.071,230.226 92.234 C 231.984 93.397,234.081 94.642,234.887 95.000 C 235.692 95.358,237.909 96.411,239.814 97.341 C 250.258 102.439,257.654 101.719,275.233 93.891 C 275.965 93.565,277.523 92.698,278.695 91.964 C 279.867 91.230,282.383 89.837,284.288 88.868 C 286.192 87.899,289.188 86.165,290.945 85.016 C 292.703 83.866,294.740 82.585,295.473 82.169 C 296.205 81.754,297.403 80.909,298.136 80.292 C 298.868 79.675,300.186 78.717,301.065 78.162 C 301.944 77.608,303.460 76.392,304.435 75.461 C 305.409 74.530,306.341 73.768,306.505 73.768 C 306.669 73.768,307.309 73.311,307.929 72.752 C 308.548 72.193,309.616 71.413,310.303 71.019 C 310.999 70.620,312.115 69.586,312.824 68.684 C 314.001 67.186,315.325 66.146,315.647 66.469 C 315.722 66.543,316.226 66.304,316.767 65.937 C 317.307 65.570,318.011 65.187,318.329 65.086 C 318.647 64.985,319.795 64.084,320.880 63.085 C 322.416 61.670,323.218 61.146,324.504 60.718 C 325.413 60.416,326.429 59.878,326.763 59.523 C 327.142 59.118,327.928 58.757,328.864 58.556 C 329.687 58.379,331.138 57.789,332.091 57.245 C 335.229 55.452,336.992 54.676,339.015 54.195 C 340.113 53.933,341.551 53.452,342.210 53.124 C 346.531 50.980,348.662 50.661,360.719 50.357 C 367.033 50.198,370.298 50.015,370.839 49.791 C 371.278 49.610,372.537 49.367,373.635 49.252 C 378.283 48.766,384.962 46.698,387.525 44.951 C 389.075 43.894,390.452 41.603,389.767 41.220 C 389.456 41.046,389.408 40.857,389.591 40.530 C 389.768 40.213,389.720 39.944,389.427 39.621 C 389.074 39.231,389.062 39.037,389.349 38.345 C 389.645 37.630,389.628 37.486,389.210 37.180 C 388.931 36.976,388.817 36.697,388.935 36.505 C 389.046 36.326,389.161 35.827,389.191 35.397 C 389.224 34.916,389.610 34.230,390.190 33.619 C 390.710 33.071,391.212 32.443,391.305 32.224 C 391.832 30.985,393.343 29.251,393.361 29.864 C 393.378 30.448,393.395 30.455,393.591 29.960 L 393.803 29.427 393.941 29.960 C 394.026 30.287,394.091 30.116,394.110 29.516 C 394.127 28.979,394.271 28.497,394.429 28.444 C 394.587 28.391,394.815 27.932,394.934 27.423 C 395.083 26.792,395.161 26.688,395.179 27.097 C 395.219 27.966,395.583 27.832,395.952 26.812 C 396.345 25.725,396.647 20.992,396.375 20.172 L 396.178 19.574 395.992 20.240 C 395.828 20.829,395.780 20.767,395.577 19.707 L 395.347 18.509 395.184 19.707 L 395.020 20.905 394.959 19.707 C 394.925 19.048,394.837 18.659,394.763 18.843 C 394.546 19.381,394.142 18.940,394.137 18.160 C 394.134 17.600,394.077 17.530,393.875 17.843 C 393.675 18.152,393.610 18.062,393.586 17.443 C 393.557 16.675,393.548 16.670,393.371 17.308 C 393.051 18.458,392.860 17.526,392.935 15.180 C 393.022 12.435,393.068 12.194,393.342 13.049 C 393.520 13.604,393.561 13.516,393.586 12.517 C 393.607 11.697,393.692 11.438,393.856 11.696 C 394.025 11.964,394.151 11.704,394.286 10.804 C 394.414 9.947,394.550 9.651,394.704 9.893 C 394.847 10.119,394.947 9.657,394.971 8.655 C 395.006 7.234,395.033 7.160,395.215 7.989 C 395.394 8.802,395.415 8.739,395.380 7.490 C 395.355 6.604,395.209 6.008,394.999 5.927 C 394.746 5.830,394.774 5.711,395.109 5.466 C 395.424 5.235,395.494 4.986,395.341 4.632 C 395.221 4.355,395.147 3.978,395.176 3.795 C 395.206 3.612,395.105 3.462,394.952 3.462 C 394.799 3.462,394.674 3.275,394.674 3.047 C 394.674 2.819,394.794 2.706,394.940 2.796 C 395.087 2.887,395.206 2.834,395.206 2.679 C 395.206 2.524,395.068 2.397,394.899 2.397 C 394.726 2.397,394.813 2.137,395.099 1.802 C 395.512 1.318,395.519 1.275,395.140 1.568 C 394.859 1.786,394.674 1.817,394.674 1.646 C 394.674 1.490,394.806 1.281,394.969 1.181 C 395.174 1.054,395.154 0.928,394.902 0.766 C 394.602 0.572,394.609 0.488,394.940 0.270 C 395.202 0.098,333.902 0.007,216.312 0.004 C 93.409 0.001,37.284 0.086,37.284 0.275 M396.911 23.968 C 396.911 26.238,396.952 27.167,397.002 26.032 C 397.052 24.897,397.052 23.039,397.002 21.904 C 396.952 20.769,396.911 21.698,396.911 23.968 M249.799 113.150 C 244.769 114.792,245.760 119.928,251.024 119.506 C 255.125 119.177,256.916 115.562,253.901 113.698 C 252.932 113.099,250.819 112.817,249.799 113.150 " stroke="none" fill="#fbd498" fill-rule="evenodd"></path><path id="path1" d="M42.876 104.048 C 42.205 104.290,40.213 106.342,40.213 106.792 C 40.213 107.459,37.528 110.144,36.352 110.654 C 34.028 111.661,30.383 111.527,26.602 110.297 C 22.102 108.833,21.485 108.713,16.140 108.262 C 13.592 108.047,9.907 107.616,7.951 107.305 C 5.995 106.994,3.975 106.690,3.462 106.629 C 2.949 106.568,2.134 106.466,1.649 106.402 C 1.165 106.339,0.595 106.353,0.384 106.434 C 0.051 106.562,0.000 117.120,0.000 186.447 L 0.000 266.312 200.000 266.312 L 400.000 266.312 400.000 237.150 C 400.000 209.559,399.975 207.989,399.534 207.981 C 399.090 207.974,399.090 207.960,399.534 207.702 C 400.708 207.018,400.117 205.925,398.469 205.733 C 397.626 205.636,396.278 205.329,395.473 205.052 C 394.233 204.626,393.558 204.574,391.079 204.718 C 386.091 205.007,382.358 204.924,371.742 204.288 L 367.851 204.055 364.818 202.587 C 359.667 200.092,357.390 199.784,352.730 200.947 C 351.851 201.166,348.795 201.467,345.939 201.615 C 332.776 202.299,329.820 204.139,336.362 207.577 C 341.920 210.497,341.161 212.396,334.776 211.547 C 329.732 210.876,328.908 210.655,326.251 209.261 C 323.685 207.915,322.671 207.625,315.180 206.097 C 313.715 205.798,311.138 205.241,309.454 204.860 C 307.102 204.327,305.279 204.122,301.598 203.977 C 296.261 203.766,294.984 203.499,291.399 201.843 C 288.296 200.409,286.542 200.001,283.450 199.994 C 282.007 199.991,279.328 199.867,277.497 199.719 C 275.666 199.572,272.071 199.344,269.507 199.214 C 259.231 198.691,247.557 196.079,248.134 194.432 C 248.583 193.147,249.357 192.729,254.860 190.795 C 261.566 188.439,260.310 186.543,250.090 183.592 C 242.055 181.271,241.788 181.142,243.538 180.411 C 245.972 179.394,250.656 178.928,254.681 179.302 C 257.574 179.571,257.730 179.557,259.792 178.871 C 261.643 178.254,262.353 178.162,265.262 178.162 C 269.812 178.162,275.899 177.008,275.899 176.145 C 275.899 173.649,270.591 171.003,261.518 168.977 C 258.586 168.322,255.883 167.505,253.395 166.521 C 251.345 165.710,247.870 164.593,245.672 164.039 C 243.475 163.484,240.538 162.664,239.145 162.216 C 235.427 161.019,234.091 160.892,220.524 160.446 C 206.610 159.989,205.900 159.898,202.023 158.061 C 198.494 156.390,197.169 156.131,194.211 156.535 C 184.882 157.808,180.576 158.194,175.706 158.191 L 171.251 158.189 170.400 159.124 C 168.894 160.779,162.265 161.433,155.393 160.604 C 154.368 160.480,151.851 160.179,149.800 159.935 C 147.750 159.691,144.754 159.290,143.142 159.044 C 141.047 158.724,138.395 158.593,133.822 158.581 C 126.409 158.563,127.279 158.712,119.574 156.141 C 113.549 154.131,111.210 153.129,108.516 151.406 C 105.987 149.788,103.432 148.627,99.931 147.505 C 95.182 145.983,87.615 141.665,85.953 139.528 C 84.788 138.030,82.138 134.827,80.518 132.960 C 77.528 129.514,78.267 128.323,84.122 127.149 C 89.785 126.015,92.565 126.904,97.001 131.272 C 103.132 137.307,106.926 138.160,126.099 137.812 C 135.161 137.648,135.861 137.600,138.881 136.928 C 141.884 136.261,142.427 136.223,147.872 136.290 C 154.556 136.372,156.286 136.158,159.627 134.839 C 162.701 133.625,165.162 133.534,169.374 134.480 C 171.963 135.061,172.823 135.112,180.959 135.169 C 188.425 135.221,190.428 135.323,194.274 135.846 C 200.104 136.639,205.085 136.674,208.256 135.944 C 213.008 134.849,221.679 135.561,224.240 137.256 C 225.639 138.182,226.062 139.483,225.424 140.898 C 224.354 143.271,226.454 143.339,229.944 141.042 C 234.685 137.923,238.635 138.197,243.142 141.957 C 246.831 145.035,246.639 144.973,253.129 145.167 C 259.673 145.363,260.720 145.584,265.357 147.745 C 269.310 149.586,269.915 149.617,272.981 148.133 C 276.859 146.256,279.241 146.153,284.093 147.652 C 288.824 149.113,295.592 150.798,301.334 151.944 L 307.457 153.166 312.250 152.987 C 318.185 152.766,319.677 152.958,327.860 155.005 C 335.737 156.974,337.793 157.305,344.302 157.652 C 353.040 158.116,355.766 158.498,362.474 160.194 C 365.359 160.924,372.063 162.067,375.031 162.336 C 376.285 162.450,378.700 162.344,381.646 162.047 C 385.931 161.615,391.468 161.605,395.473 162.024 C 395.985 162.077,397.214 162.209,398.202 162.317 L 400.000 162.512 400.000 150.010 L 400.000 137.509 398.336 137.210 C 395.057 136.621,393.321 136.582,382.024 136.849 C 374.569 137.025,369.271 137.030,366.844 136.863 C 362.027 136.530,360.390 136.871,357.825 138.742 C 354.060 141.486,347.645 141.329,337.595 138.244 C 335.227 137.517,331.611 136.425,329.561 135.818 C 327.510 135.211,324.754 134.367,323.435 133.944 C 322.117 133.521,318.461 132.525,315.312 131.731 C 309.812 130.345,305.812 128.868,306.136 128.345 C 306.219 128.211,306.080 128.181,305.829 128.277 C 305.532 128.391,305.436 128.350,305.553 128.160 C 305.661 127.984,305.360 127.732,304.800 127.529 C 304.258 127.333,303.992 127.115,304.165 127.007 C 304.330 126.906,303.969 126.739,303.365 126.637 C 302.761 126.535,302.207 126.356,302.135 126.239 C 302.063 126.122,301.459 125.945,300.792 125.845 C 300.126 125.745,298.907 125.432,298.084 125.149 C 295.031 124.098,291.216 123.612,284.820 123.457 C 281.451 123.375,277.856 123.191,276.831 123.047 C 269.238 121.982,263.344 122.407,258.385 124.375 C 252.178 126.838,250.423 127.152,242.743 127.176 C 237.396 127.192,235.771 127.283,234.487 127.639 C 229.564 129.006,228.179 129.154,220.107 129.181 C 213.500 129.203,212.431 129.048,208.213 127.456 C 204.419 126.024,201.432 126.053,195.589 127.577 C 186.092 130.054,173.813 127.048,173.813 122.245 C 173.813 120.377,178.133 117.999,181.575 117.973 C 182.560 117.965,184.728 116.724,184.154 116.496 C 183.862 116.379,183.536 116.155,183.431 115.998 C 183.185 115.628,177.956 115.714,175.705 116.125 C 174.549 116.336,172.127 116.371,167.836 116.238 C 160.493 116.011,160.092 116.085,157.653 118.118 C 154.899 120.413,154.003 120.995,150.323 122.881 L 146.851 124.660 142.334 125.015 C 139.849 125.210,137.517 125.489,137.150 125.637 C 132.813 127.380,122.593 128.139,119.887 126.919 C 118.622 126.348,118.501 125.271,119.595 124.325 C 119.876 124.082,120.107 123.792,120.107 123.681 C 120.107 123.571,120.291 123.290,120.516 123.058 C 121.238 122.315,123.822 118.929,124.146 118.301 C 124.892 116.860,122.516 115.553,117.310 114.542 C 111.803 113.472,109.736 113.188,105.532 112.928 C 99.988 112.584,98.815 112.225,95.073 109.725 C 92.194 107.801,85.297 105.992,80.844 105.992 C 78.165 105.992,76.534 106.471,72.701 108.382 C 65.510 111.969,59.206 111.340,51.323 106.250 C 48.008 104.110,44.929 103.307,42.876 104.048 M33.675 115.275 C 36.465 116.169,38.023 116.450,42.643 116.890 C 47.404 117.344,49.231 118.390,51.689 122.071 C 52.996 124.028,52.999 124.019,50.656 125.215 C 47.580 126.785,45.218 127.194,41.811 126.746 C 40.105 126.522,36.264 126.368,31.957 126.350 C 21.279 126.307,11.322 124.399,7.196 121.604 C 3.185 118.887,4.069 118.140,13.998 115.858 C 20.410 114.384,21.387 114.265,26.365 114.348 C 30.763 114.421,31.174 114.473,33.675 115.275 M64.555 125.423 C 68.027 126.620,68.584 127.645,66.340 128.705 C 63.057 130.255,61.574 129.999,59.184 127.472 C 57.666 125.867,57.463 125.246,58.389 125.049 C 58.718 124.978,59.228 124.863,59.521 124.793 C 60.483 124.561,62.954 124.870,64.555 125.423 M166.578 144.931 C 160.397 145.351,158.268 147.035,162.412 148.226 C 163.239 148.463,165.293 149.154,166.977 149.761 L 170.040 150.866 174.700 150.852 C 182.972 150.829,186.283 149.610,184.688 147.175 C 183.780 145.791,182.240 145.351,176.991 144.978 C 171.646 144.598,171.484 144.598,166.578 144.931 M133.911 150.235 C 133.018 150.562,132.836 151.031,133.196 152.066 C 133.819 153.852,137.611 154.648,138.729 153.226 C 140.335 151.185,136.990 149.108,133.911 150.235 M310.386 166.441 C 308.628 166.554,305.992 166.831,304.527 167.056 C 303.063 167.281,301.145 167.544,300.266 167.639 C 294.926 168.217,293.522 169.947,296.014 172.880 C 296.678 173.662,298.048 175.323,299.059 176.573 C 302.853 181.260,305.534 182.601,312.250 183.169 C 316.796 183.554,320.622 185.331,322.779 188.059 C 326.514 192.784,336.085 193.464,336.085 189.004 C 336.085 186.626,338.196 185.795,344.073 185.856 C 356.285 185.985,358.172 186.768,357.142 191.278 C 356.734 193.064,358.224 194.207,361.385 194.530 C 362.337 194.628,364.494 194.901,366.178 195.138 C 369.213 195.564,376.666 195.690,384.953 195.454 C 388.034 195.366,388.701 195.432,391.010 196.051 C 392.437 196.433,393.994 196.697,394.472 196.637 C 396.281 196.409,397.247 196.330,398.602 196.301 C 400.112 196.269,400.488 195.823,399.218 195.569 C 398.082 195.342,397.969 194.732,399.012 194.462 L 399.867 194.241 399.938 186.819 C 399.993 181.059,399.933 179.350,399.671 179.184 C 399.405 179.015,399.404 178.969,399.667 178.965 C 399.903 178.963,400.000 178.389,400.000 177.000 L 400.000 175.038 399.001 175.237 C 398.452 175.346,397.583 175.659,397.071 175.933 C 394.406 177.357,376.495 175.991,370.573 173.911 C 368.077 173.035,366.234 172.609,362.505 172.046 C 359.056 171.524,356.858 170.857,354.267 169.544 C 349.636 167.197,343.676 166.516,326.365 166.355 C 319.334 166.290,312.144 166.328,310.386 166.441 M66.844 173.727 C 68.822 174.285,71.877 175.148,73.635 175.646 C 75.393 176.143,78.558 176.858,80.668 177.236 C 86.780 178.328,88.490 179.139,91.134 182.202 C 91.909 183.100,93.428 184.806,94.509 185.992 C 98.163 190.002,98.412 190.928,96.093 191.873 C 92.991 193.137,89.979 192.557,83.115 189.372 C 79.486 187.688,78.164 187.222,75.122 186.557 C 72.880 186.067,72.250 185.686,69.639 183.239 C 66.297 180.108,63.855 179.234,58.445 179.230 C 53.157 179.226,48.469 176.972,48.469 174.434 C 48.469 172.908,50.086 172.597,57.656 172.664 L 63.249 172.713 66.844 173.727 M109.144 173.189 C 109.832 173.922,109.672 174.168,108.507 174.168 C 107.533 174.168,106.341 173.349,106.631 172.879 C 106.971 172.330,108.516 172.520,109.144 173.189 M125.965 176.851 C 127.503 177.268,129.588 177.738,130.598 177.897 C 137.470 178.976,143.675 181.091,147.660 183.714 C 150.953 185.881,150.801 185.858,154.977 184.793 C 158.721 183.838,161.438 184.224,167.007 186.502 C 170.917 188.101,177.385 190.184,179.893 190.653 C 181.708 190.992,184.162 192.099,184.385 192.679 C 184.884 193.979,181.293 193.852,178.548 192.472 C 173.698 190.033,170.659 189.601,166.612 190.777 C 162.001 192.118,158.707 191.516,153.171 188.321 C 150.889 187.004,150.832 186.988,147.537 186.697 C 143.286 186.321,141.995 186.064,138.083 184.811 C 136.325 184.248,132.310 183.056,129.161 182.161 C 122.102 180.156,121.428 179.929,120.139 179.115 C 115.520 176.199,118.820 174.917,125.965 176.851 M235.020 179.485 C 237.776 180.810,237.598 181.193,234.249 181.140 C 230.697 181.083,229.363 180.463,230.613 179.451 C 231.425 178.793,233.616 178.810,235.020 179.485 M297.537 184.562 C 295.722 185.292,300.146 188.737,304.865 190.270 C 308.296 191.384,313.582 190.735,313.582 189.199 C 313.582 186.823,300.976 183.180,297.537 184.562 M110.154 195.596 C 112.332 196.397,115.984 197.813,118.268 198.744 C 120.552 199.675,123.608 200.709,125.059 201.042 C 126.509 201.376,129.434 202.069,131.558 202.582 C 133.682 203.095,136.678 203.620,138.216 203.748 C 142.088 204.070,143.012 204.210,146.162 204.948 C 154.014 206.787,155.436 204.308,149.186 199.676 C 146.888 197.974,148.015 197.465,153.138 197.894 C 158.908 198.376,162.028 199.589,164.654 202.373 C 166.567 204.400,167.923 205.291,170.317 206.089 C 172.047 206.666,173.042 206.742,178.110 206.683 C 185.627 206.596,188.650 210.588,183.898 214.325 C 182.247 215.624,178.337 215.318,172.920 213.465 C 171.043 212.823,168.214 212.039,166.634 211.723 C 165.054 211.406,161.340 210.317,158.382 209.302 C 152.148 207.163,151.949 207.146,148.028 208.414 C 138.720 211.423,138.767 212.880,148.330 217.694 C 151.043 219.059,154.461 220.827,155.925 221.623 C 157.390 222.418,160.326 223.915,162.450 224.950 C 168.458 227.876,173.142 231.227,172.340 232.026 C 170.974 233.385,160.915 231.457,151.774 228.084 C 149.517 227.251,145.245 225.690,142.281 224.616 C 136.527 222.530,132.544 220.632,128.895 218.237 C 127.650 217.420,125.493 216.203,124.101 215.534 C 115.622 211.454,115.763 211.558,114.134 208.167 C 113.488 206.824,112.344 205.007,111.590 204.128 C 110.836 203.249,109.673 201.631,109.006 200.533 C 108.339 199.434,107.208 197.668,106.493 196.608 C 104.448 193.576,104.565 193.543,110.154 195.596 M396.338 200.176 C 395.166 200.649,397.082 202.128,398.868 202.129 L 400.000 202.130 400.000 201.065 L 400.000 200.000 398.336 200.021 C 397.420 200.033,396.521 200.102,396.338 200.176 M360.719 218.209 C 362.598 219.093,363.763 220.213,363.158 220.552 C 362.834 220.733,362.495 220.651,361.939 220.255 C 361.516 219.954,361.062 219.707,360.930 219.707 C 360.511 219.707,358.189 218.132,358.189 217.849 C 358.189 217.389,359.320 217.550,360.719 218.209 M181.625 232.765 C 182.577 232.914,184.674 233.442,186.285 233.938 C 187.896 234.434,189.896 234.978,190.728 235.145 C 191.561 235.313,193.179 235.748,194.324 236.112 C 195.994 236.644,197.309 236.822,200.990 237.016 C 206.325 237.298,206.801 237.406,211.073 239.295 C 220.479 243.457,224.757 243.267,225.797 238.641 C 225.936 238.023,226.338 237.075,226.692 236.535 C 227.045 235.995,227.410 235.349,227.502 235.100 C 228.170 233.295,230.158 233.583,235.498 236.258 C 238.512 237.767,239.976 238.322,242.865 239.048 C 248.441 240.448,250.175 241.116,254.188 243.412 C 256.236 244.583,259.232 246.109,260.846 246.803 C 262.461 247.497,265.340 248.827,267.244 249.759 C 269.148 250.691,272.179 251.968,273.981 252.597 C 279.976 254.689,281.222 256.402,277.475 257.399 C 275.624 257.892,273.840 257.884,271.505 257.372 C 261.523 255.184,257.556 254.594,252.779 254.589 C 245.650 254.581,239.193 254.148,235.153 253.407 C 233.176 253.045,230.060 252.631,228.229 252.488 C 225.879 252.304,224.090 251.985,222.145 251.403 C 220.629 250.950,217.933 250.232,216.153 249.808 C 211.335 248.661,208.637 247.625,203.310 244.878 C 199.797 243.067,197.530 242.096,194.921 241.285 C 192.954 240.673,190.044 239.514,188.454 238.709 C 186.864 237.905,184.375 236.832,182.923 236.327 C 174.844 233.515,174.143 231.594,181.625 232.765 M310.253 261.779 C 310.619 261.905,311.253 262.080,311.662 262.170 C 312.071 262.259,312.333 262.449,312.245 262.592 C 312.157 262.734,312.376 262.961,312.731 263.096 C 313.086 263.231,313.447 263.526,313.534 263.752 C 313.837 264.543,310.812 264.890,309.854 264.173 C 309.707 264.064,308.894 263.821,308.046 263.633 C 307.198 263.446,306.623 263.220,306.768 263.130 C 306.912 263.041,306.647 262.791,306.178 262.576 L 305.326 262.184 306.658 262.026 C 307.390 261.939,307.690 261.837,307.324 261.800 L 306.658 261.731 307.324 261.515 C 308.017 261.291,309.115 261.389,310.253 261.779 " stroke="none" fill="#59504e" fill-rule="evenodd"></path><path id="path2" d="M0.000 26.795 L 0.000 53.591 0.549 53.447 C 0.955 53.341,1.221 53.506,1.571 54.081 C 1.831 54.508,2.123 54.779,2.220 54.682 C 2.317 54.585,2.397 54.772,2.397 55.098 C 2.397 55.425,2.516 55.617,2.663 55.526 C 2.810 55.435,2.929 55.610,2.929 55.913 C 2.929 56.217,3.042 56.673,3.180 56.928 C 3.317 57.182,3.504 57.737,3.594 58.161 C 3.765 58.964,4.114 58.852,4.337 57.923 C 4.408 57.630,4.479 57.907,4.496 58.538 C 4.513 59.169,4.639 59.616,4.775 59.532 C 4.911 59.448,5.074 59.651,5.138 59.983 C 5.249 60.561,5.256 60.558,5.310 59.920 C 5.362 59.309,5.396 59.330,5.726 60.186 C 5.965 60.807,6.091 60.942,6.105 60.591 C 6.121 60.170,6.257 60.256,6.771 61.013 C 7.488 62.068,14.866 66.984,18.342 68.723 C 21.078 70.092,27.271 71.815,31.824 72.474 C 35.392 72.991,49.401 76.384,58.589 78.956 C 60.859 79.591,63.675 80.249,64.847 80.417 C 68.995 81.012,79.891 83.996,90.146 87.346 C 92.783 88.207,95.479 88.995,96.138 89.095 C 96.798 89.196,99.134 89.932,101.332 90.731 C 103.529 91.530,107.244 92.880,109.587 93.730 C 111.931 94.581,114.807 95.663,115.979 96.135 C 126.275 100.280,138.203 103.542,150.732 105.639 C 152.124 105.872,153.502 106.162,153.795 106.285 C 154.528 106.591,158.637 107.501,161.444 107.979 C 163.807 108.381,168.894 108.856,178.695 109.590 C 184.605 110.033,186.746 110.401,193.076 112.057 C 198.793 113.553,205.804 114.644,213.981 115.310 C 218.402 115.670,220.950 116.183,224.767 117.481 C 228.596 118.784,230.233 119.223,234.088 119.979 C 235.772 120.310,238.529 120.943,240.213 121.386 C 247.880 123.403,252.072 123.256,258.606 120.741 L 261.917 119.466 266.445 119.453 C 268.935 119.446,273.668 119.543,276.964 119.668 C 281.160 119.827,283.595 119.805,285.087 119.593 C 286.258 119.426,292.030 119.178,297.912 119.040 C 303.794 118.903,310.625 118.670,313.092 118.522 C 315.803 118.359,318.366 118.345,319.574 118.487 C 324.261 119.037,330.117 119.593,334.088 119.866 C 338.570 120.174,339.007 120.137,343.675 119.042 C 344.993 118.733,347.870 118.194,350.067 117.844 C 354.657 117.114,357.761 116.481,358.406 116.144 C 358.957 115.857,364.392 114.412,366.578 113.972 C 367.457 113.795,370.673 112.829,373.725 111.826 C 380.492 109.601,382.614 109.019,384.687 108.817 C 385.566 108.732,387.783 108.228,389.614 107.697 C 391.445 107.167,393.272 106.732,393.675 106.731 C 394.166 106.729,394.414 106.585,394.428 106.294 C 394.440 106.055,394.506 105.996,394.574 106.163 C 394.725 106.530,395.739 106.314,395.739 105.917 C 395.739 105.763,395.818 105.716,395.914 105.812 C 396.011 105.909,396.250 105.854,396.447 105.691 C 396.712 105.471,396.804 105.476,396.804 105.712 C 396.804 105.916,396.955 105.880,397.223 105.612 C 397.453 105.381,397.723 105.184,397.822 105.173 C 397.921 105.161,398.242 105.100,398.535 105.036 C 398.828 104.971,399.278 104.895,399.534 104.866 C 399.976 104.816,400.000 102.120,400.000 52.407 L 400.000 0.000 397.670 0.004 C 395.286 0.008,394.194 0.309,394.902 0.766 C 395.154 0.928,395.174 1.054,394.969 1.181 C 394.806 1.281,394.674 1.490,394.674 1.646 C 394.674 1.817,394.859 1.786,395.140 1.568 C 395.519 1.275,395.512 1.318,395.099 1.802 C 394.813 2.137,394.726 2.397,394.899 2.397 C 395.068 2.397,395.206 2.524,395.206 2.679 C 395.206 2.834,395.087 2.887,394.940 2.796 C 394.794 2.706,394.674 2.819,394.674 3.047 C 394.674 3.275,394.799 3.462,394.952 3.462 C 395.105 3.462,395.206 3.612,395.176 3.795 C 395.147 3.978,395.221 4.355,395.341 4.632 C 395.494 4.986,395.424 5.235,395.109 5.466 C 394.774 5.711,394.746 5.830,394.999 5.927 C 395.209 6.008,395.355 6.604,395.380 7.490 C 395.415 8.739,395.394 8.802,395.215 7.989 C 395.033 7.160,395.006 7.234,394.971 8.655 C 394.947 9.657,394.847 10.119,394.704 9.893 C 394.550 9.651,394.414 9.947,394.286 10.804 C 394.151 11.704,394.025 11.964,393.856 11.696 C 393.692 11.438,393.607 11.697,393.586 12.517 C 393.561 13.516,393.520 13.604,393.342 13.049 C 393.068 12.194,393.022 12.435,392.935 15.180 C 392.860 17.526,393.051 18.458,393.371 17.308 C 393.548 16.670,393.557 16.675,393.586 17.443 C 393.610 18.062,393.675 18.152,393.875 17.843 C 394.077 17.530,394.134 17.600,394.137 18.160 C 394.142 18.940,394.546 19.381,394.763 18.843 C 394.837 18.659,394.925 19.048,394.959 19.707 L 395.020 20.905 395.184 19.707 L 395.347 18.509 395.577 19.707 C 395.780 20.767,395.828 20.829,395.992 20.240 L 396.178 19.574 396.375 20.172 C 396.647 20.992,396.345 25.725,395.952 26.812 C 395.583 27.832,395.219 27.966,395.179 27.097 C 395.161 26.688,395.083 26.792,394.934 27.423 C 394.815 27.932,394.587 28.391,394.429 28.444 C 394.271 28.497,394.133 28.979,394.122 29.516 C 394.108 30.279,394.057 30.376,393.892 29.960 L 393.680 29.427 393.542 29.960 C 393.421 30.428,393.400 30.416,393.373 29.864 C 393.343 29.251,391.840 30.965,391.305 32.224 C 391.212 32.443,390.710 33.071,390.190 33.619 C 389.610 34.230,389.224 34.916,389.191 35.397 C 389.161 35.827,389.046 36.326,388.935 36.505 C 388.817 36.697,388.931 36.976,389.210 37.180 C 389.628 37.486,389.645 37.630,389.349 38.345 C 389.062 39.037,389.074 39.231,389.427 39.621 C 389.720 39.944,389.768 40.213,389.591 40.530 C 389.408 40.857,389.456 41.046,389.767 41.220 C 390.452 41.603,389.075 43.894,387.525 44.951 C 384.962 46.698,378.283 48.766,373.635 49.252 C 372.537 49.367,371.278 49.610,370.839 49.791 C 370.298 50.015,367.033 50.198,360.719 50.357 C 348.662 50.661,346.531 50.980,342.210 53.124 C 341.551 53.452,340.113 53.933,339.015 54.195 C 336.992 54.676,335.229 55.452,332.091 57.245 C 331.138 57.789,329.687 58.379,328.864 58.556 C 327.928 58.757,327.142 59.118,326.763 59.523 C 326.429 59.878,325.413 60.416,324.504 60.718 C 323.218 61.146,322.416 61.670,320.880 63.085 C 319.795 64.084,318.647 64.985,318.329 65.086 C 318.011 65.187,317.307 65.570,316.767 65.937 C 316.226 66.304,315.722 66.543,315.647 66.469 C 315.325 66.146,314.001 67.186,312.824 68.684 C 312.115 69.586,310.999 70.620,310.303 71.019 C 309.616 71.413,308.548 72.193,307.929 72.752 C 307.309 73.311,306.669 73.768,306.505 73.768 C 306.341 73.768,305.409 74.530,304.435 75.461 C 303.460 76.392,301.944 77.608,301.065 78.162 C 300.186 78.717,298.868 79.675,298.136 80.292 C 297.403 80.909,296.205 81.754,295.473 82.169 C 294.740 82.585,292.703 83.866,290.945 85.016 C 289.188 86.165,286.192 87.899,284.288 88.868 C 282.383 89.837,279.867 91.230,278.695 91.964 C 277.523 92.698,275.965 93.565,275.233 93.891 C 257.654 101.719,250.258 102.439,239.814 97.341 C 237.909 96.411,235.692 95.358,234.887 95.000 C 234.081 94.642,231.984 93.397,230.226 92.234 C 228.469 91.071,226.357 89.736,225.533 89.267 C 224.709 88.798,222.013 86.955,219.541 85.171 C 217.069 83.387,213.908 81.150,212.517 80.198 C 211.125 79.247,209.567 78.098,209.055 77.645 C 208.542 77.192,207.643 76.535,207.057 76.184 C 206.471 75.832,204.913 74.502,203.595 73.228 C 202.277 71.953,200.719 70.666,200.133 70.366 C 199.547 70.067,198.708 69.444,198.269 68.981 C 197.830 68.518,196.853 67.786,196.098 67.354 C 195.344 66.922,194.008 65.801,193.129 64.862 C 192.251 63.923,191.046 62.906,190.452 62.603 C 189.857 62.300,189.036 61.623,188.627 61.100 C 188.218 60.576,187.284 59.844,186.551 59.474 C 185.819 59.104,184.680 58.280,184.021 57.642 C 183.362 57.004,182.224 56.225,181.491 55.909 C 180.725 55.579,179.425 54.622,178.429 53.654 C 177.191 52.452,176.220 51.781,175.021 51.300 C 174.054 50.911,172.758 50.095,171.958 49.372 C 171.196 48.682,169.674 47.703,168.575 47.196 C 167.186 46.555,166.027 45.746,164.769 44.540 C 163.094 42.933,162.934 42.840,162.607 43.289 C 162.274 43.743,162.041 43.664,158.752 41.980 C 156.417 40.784,154.816 40.135,153.945 40.032 C 153.010 39.922,152.678 39.777,152.776 39.524 C 152.904 39.190,152.628 39.070,151.132 38.809 C 150.839 38.758,150.628 38.578,150.663 38.409 C 150.698 38.240,150.248 37.977,149.664 37.826 C 149.080 37.674,148.123 37.425,147.537 37.273 C 146.951 37.121,146.471 36.841,146.471 36.650 C 146.471 36.459,145.981 36.156,145.381 35.976 C 144.781 35.796,143.385 35.237,142.278 34.732 C 141.172 34.228,139.542 33.628,138.658 33.399 C 137.773 33.169,136.756 32.751,136.398 32.470 C 136.040 32.188,135.480 31.957,135.153 31.957 C 134.826 31.957,134.262 31.724,133.899 31.438 C 133.536 31.153,132.411 30.716,131.400 30.469 C 130.388 30.221,129.304 29.787,128.991 29.505 C 128.678 29.222,127.359 28.648,126.062 28.228 C 124.764 27.809,123.282 27.290,122.770 27.075 C 122.257 26.861,120.879 26.600,119.707 26.497 C 118.535 26.394,115.837 25.906,113.712 25.413 C 111.586 24.919,108.231 24.264,106.255 23.956 C 104.280 23.648,101.944 23.167,101.065 22.887 C 100.186 22.608,96.771 21.772,93.475 21.030 C 90.180 20.287,86.105 19.339,84.421 18.922 C 82.736 18.506,80.879 18.084,80.293 17.984 C 79.707 17.885,77.909 17.409,76.298 16.925 C 74.687 16.442,71.571 15.662,69.374 15.193 C 67.177 14.723,64.001 13.978,62.317 13.538 C 60.632 13.097,58.639 12.627,57.887 12.494 C 57.134 12.361,55.694 11.902,54.686 11.473 C 53.679 11.044,52.026 10.501,51.014 10.266 C 49.018 9.803,45.437 7.978,44.928 7.164 C 44.739 6.861,44.311 6.658,43.862 6.658 C 43.426 6.658,43.180 6.545,43.277 6.390 C 43.368 6.242,43.234 6.041,42.979 5.944 C 42.552 5.780,42.556 5.750,43.029 5.565 C 43.444 5.402,43.389 5.359,42.743 5.341 C 42.178 5.325,42.052 5.250,42.312 5.085 C 42.601 4.902,42.558 4.813,42.112 4.672 C 41.800 4.573,41.545 4.380,41.545 4.243 C 41.545 4.106,41.245 3.995,40.879 3.995 C 40.050 3.995,40.001 3.540,40.812 3.384 C 41.149 3.319,40.887 3.237,40.213 3.197 L 39.015 3.126 39.947 2.929 C 40.537 2.805,40.665 2.720,40.295 2.698 C 39.618 2.657,39.255 2.233,39.745 2.054 C 39.929 1.987,39.601 1.842,39.015 1.731 C 37.576 1.459,36.921 1.090,37.816 1.056 C 38.480 1.032,38.480 1.031,37.883 0.791 C 37.553 0.658,37.284 0.426,37.284 0.275 C 37.284 0.089,31.280 0.000,18.642 0.000 L 0.000 0.000 0.000 26.795 M397.002 26.032 C 396.952 27.167,396.911 26.238,396.911 23.968 C 396.911 21.698,396.952 20.769,397.002 21.904 C 397.052 23.039,397.052 24.897,397.002 26.032 M253.901 113.698 C 256.916 115.562,255.125 119.177,251.024 119.506 C 247.559 119.784,245.447 117.327,247.049 114.882 C 248.243 113.059,251.857 112.435,253.901 113.698 " stroke="none" fill="#e59661" fill-rule="evenodd"></path><path id="path3" d="M0.466 53.463 C 0.026 53.562,0.000 55.043,0.000 79.980 L 0.000 106.391 1.668 106.461 C 2.586 106.500,3.635 106.591,3.999 106.664 C 6.673 107.199,12.250 107.933,16.140 108.262 C 21.485 108.713,22.102 108.833,26.602 110.297 C 30.383 111.527,34.028 111.661,36.352 110.654 C 37.528 110.144,40.213 107.459,40.213 106.792 C 40.213 106.560,40.754 105.839,41.414 105.191 C 43.630 103.016,46.976 103.381,51.398 106.279 C 59.095 111.325,65.528 111.960,72.701 108.382 C 76.534 106.471,78.165 105.992,80.844 105.992 C 85.297 105.992,92.194 107.801,95.073 109.725 C 98.815 112.225,99.988 112.584,105.532 112.928 C 109.736 113.188,111.803 113.472,117.310 114.542 C 122.516 115.553,124.892 116.860,124.146 118.301 C 123.822 118.929,121.238 122.315,120.516 123.058 C 120.291 123.290,120.107 123.571,120.107 123.681 C 120.107 123.792,119.876 124.082,119.595 124.325 C 118.501 125.271,118.622 126.348,119.887 126.919 C 122.593 128.139,132.813 127.380,137.150 125.637 C 137.517 125.489,139.849 125.210,142.334 125.015 L 146.851 124.660 150.323 122.881 C 154.003 120.995,154.899 120.413,157.653 118.118 C 160.092 116.085,160.493 116.011,167.836 116.238 C 172.127 116.371,174.549 116.336,175.705 116.125 C 177.956 115.714,183.185 115.628,183.431 115.998 C 183.536 116.155,183.862 116.379,184.154 116.496 C 184.728 116.724,182.560 117.965,181.575 117.973 C 178.133 117.999,173.813 120.377,173.813 122.245 C 173.813 127.048,186.092 130.054,195.589 127.577 C 201.432 126.053,204.419 126.024,208.213 127.456 C 212.431 129.048,213.500 129.203,220.107 129.181 C 228.179 129.154,229.564 129.006,234.487 127.639 C 235.771 127.283,237.396 127.192,242.743 127.176 C 250.423 127.152,252.178 126.838,258.385 124.375 C 263.344 122.407,269.238 121.982,276.831 123.047 C 277.856 123.191,281.451 123.375,284.820 123.457 C 291.216 123.612,295.031 124.098,298.084 125.149 C 298.907 125.432,300.126 125.745,300.792 125.845 C 301.459 125.945,302.063 126.122,302.135 126.239 C 302.207 126.356,302.761 126.535,303.365 126.637 C 303.969 126.739,304.330 126.906,304.165 127.007 C 303.992 127.115,304.258 127.333,304.800 127.529 C 305.314 127.715,305.674 127.964,305.601 128.083 C 305.256 128.641,309.732 130.324,315.272 131.721 C 318.443 132.520,322.117 133.521,323.435 133.944 C 324.754 134.367,327.510 135.211,329.561 135.818 C 331.611 136.425,335.227 137.517,337.595 138.244 C 347.645 141.329,354.060 141.486,357.825 138.742 C 360.390 136.872,362.027 136.530,366.844 136.862 C 369.261 137.028,374.710 137.024,382.334 136.851 C 393.645 136.593,395.007 136.631,399.003 137.316 L 400.004 137.487 399.935 121.140 C 399.880 107.997,399.800 104.807,399.525 104.863 C 398.905 104.989,398.006 105.153,397.822 105.173 C 397.723 105.184,397.453 105.381,397.223 105.612 C 396.955 105.880,396.804 105.916,396.804 105.712 C 396.804 105.476,396.712 105.471,396.447 105.691 C 396.250 105.854,396.011 105.909,395.914 105.812 C 395.818 105.716,395.739 105.763,395.739 105.917 C 395.739 106.314,394.725 106.530,394.574 106.163 C 394.506 105.996,394.440 106.055,394.428 106.294 C 394.414 106.585,394.166 106.729,393.675 106.731 C 393.272 106.732,391.445 107.167,389.614 107.697 C 387.783 108.228,385.566 108.732,384.687 108.817 C 382.614 109.019,380.492 109.601,373.725 111.826 C 370.673 112.829,367.457 113.795,366.578 113.972 C 364.392 114.412,358.957 115.857,358.406 116.144 C 357.761 116.481,354.657 117.114,350.067 117.844 C 347.870 118.194,344.993 118.733,343.675 119.042 C 339.007 120.137,338.570 120.174,334.088 119.866 C 330.117 119.593,324.261 119.037,319.574 118.487 C 318.366 118.345,315.803 118.359,313.092 118.522 C 310.625 118.670,303.794 118.903,297.912 119.040 C 292.030 119.178,286.258 119.426,285.087 119.593 C 283.595 119.805,281.160 119.827,276.964 119.668 C 273.668 119.543,268.935 119.446,266.445 119.453 L 261.917 119.466 258.606 120.741 C 252.072 123.256,247.880 123.403,240.213 121.386 C 238.529 120.943,235.772 120.310,234.088 119.979 C 230.233 119.223,228.596 118.784,224.767 117.481 C 220.950 116.183,218.402 115.670,213.981 115.310 C 205.804 114.644,198.793 113.553,193.076 112.057 C 186.746 110.401,184.605 110.033,178.695 109.590 C 168.894 108.856,163.807 108.381,161.444 107.979 C 158.637 107.501,154.528 106.591,153.795 106.285 C 153.502 106.162,152.124 105.872,150.732 105.639 C 138.203 103.542,126.275 100.280,115.979 96.135 C 114.807 95.663,111.931 94.581,109.587 93.730 C 107.244 92.880,103.529 91.530,101.332 90.731 C 99.134 89.932,96.798 89.196,96.138 89.095 C 95.479 88.995,92.783 88.207,90.146 87.346 C 79.891 83.996,68.995 81.012,64.847 80.417 C 63.675 80.249,60.859 79.591,58.589 78.956 C 49.401 76.384,35.392 72.991,31.824 72.474 C 27.271 71.815,21.078 70.092,18.342 68.723 C 14.866 66.984,7.488 62.068,6.771 61.013 C 6.257 60.256,6.121 60.170,6.105 60.591 C 6.092 60.935,5.965 60.795,5.740 60.186 C 5.410 59.293,5.390 59.282,5.264 59.920 C 5.137 60.562,5.131 60.564,5.096 59.971 C 5.076 59.633,4.940 59.430,4.794 59.521 C 4.633 59.620,4.515 59.228,4.496 58.538 C 4.479 57.907,4.408 57.630,4.337 57.923 C 4.114 58.852,3.765 58.964,3.594 58.161 C 3.504 57.737,3.317 57.182,3.180 56.928 C 3.042 56.673,2.929 56.217,2.929 55.913 C 2.929 55.610,2.810 55.435,2.663 55.526 C 2.517 55.616,2.397 55.437,2.397 55.126 C 2.397 54.816,2.286 54.631,2.150 54.715 C 2.014 54.799,1.829 54.637,1.740 54.355 C 1.524 53.675,1.037 53.334,0.466 53.463 M19.590 114.665 C 13.431 115.813,6.851 117.536,5.819 118.271 C 2.769 120.442,9.441 123.728,20.759 125.627 C 24.450 126.246,25.668 126.325,31.957 126.350 C 36.264 126.368,40.105 126.522,41.811 126.746 C 45.218 127.194,47.580 126.785,50.656 125.215 C 52.999 124.019,52.996 124.028,51.689 122.071 C 49.231 118.390,47.404 117.344,42.643 116.890 C 38.023 116.450,36.465 116.169,33.675 115.275 C 30.441 114.238,23.492 113.937,19.590 114.665 M59.521 124.793 C 59.228 124.863,58.718 124.978,58.389 125.049 C 56.118 125.533,60.976 129.895,63.458 129.601 C 64.953 129.424,67.909 128.124,67.909 127.644 C 67.909 126.277,61.875 124.226,59.521 124.793 M83.755 127.188 C 78.248 128.395,77.585 129.578,80.518 132.960 C 82.138 134.827,84.788 138.030,85.953 139.528 C 87.615 141.665,95.182 145.983,99.931 147.505 C 103.432 148.627,105.987 149.788,108.516 151.406 C 111.210 153.129,113.549 154.131,119.574 156.141 C 127.279 158.712,126.409 158.563,133.822 158.581 C 138.395 158.593,141.047 158.724,143.142 159.044 C 144.754 159.290,147.750 159.691,149.800 159.935 C 151.851 160.179,154.368 160.480,155.393 160.604 C 162.265 161.433,168.894 160.779,170.400 159.124 L 171.251 158.189 175.706 158.191 C 180.576 158.194,184.882 157.808,194.211 156.535 C 197.169 156.131,198.494 156.390,202.023 158.061 C 205.900 159.898,206.610 159.989,220.524 160.446 C 234.091 160.892,235.427 161.019,239.145 162.216 C 240.538 162.664,243.475 163.484,245.672 164.039 C 247.870 164.593,251.345 165.710,253.395 166.521 C 255.883 167.505,258.586 168.322,261.518 168.977 C 270.591 171.003,275.899 173.649,275.899 176.145 C 275.899 177.008,269.812 178.162,265.262 178.162 C 262.353 178.162,261.643 178.254,259.792 178.871 C 257.730 179.557,257.574 179.571,254.681 179.302 C 250.656 178.928,245.972 179.394,243.538 180.411 C 241.788 181.142,242.055 181.271,250.090 183.592 C 260.310 186.543,261.566 188.439,254.860 190.795 C 249.357 192.729,248.583 193.147,248.134 194.432 C 247.557 196.079,259.231 198.691,269.507 199.214 C 272.071 199.344,275.666 199.572,277.497 199.719 C 279.328 199.867,282.007 199.991,283.450 199.994 C 286.542 200.001,288.296 200.409,291.399 201.843 C 294.984 203.499,296.261 203.766,301.598 203.977 C 305.279 204.122,307.102 204.327,309.454 204.860 C 311.138 205.241,313.715 205.798,315.180 206.097 C 322.671 207.625,323.685 207.915,326.251 209.261 C 328.908 210.655,329.732 210.876,334.776 211.547 C 341.161 212.396,341.920 210.497,336.362 207.577 C 329.820 204.139,332.776 202.299,345.939 201.615 C 348.795 201.467,351.851 201.166,352.730 200.947 C 357.390 199.784,359.667 200.092,364.818 202.587 L 367.851 204.055 371.742 204.288 C 382.356 204.924,386.090 205.007,391.079 204.718 C 393.546 204.575,394.239 204.627,395.473 205.047 C 396.278 205.321,397.626 205.630,398.469 205.733 L 400.000 205.920 400.000 204.675 C 400.000 203.913,399.897 203.494,399.734 203.595 C 399.587 203.686,399.467 203.633,399.467 203.478 C 399.467 203.323,399.587 203.196,399.734 203.196 C 399.880 203.196,400.000 202.956,400.000 202.663 C 400.000 202.214,399.822 202.130,398.868 202.129 C 397.010 202.128,395.169 200.644,396.427 200.162 C 396.658 200.073,397.557 200.000,398.424 200.000 L 400.000 200.000 400.000 198.101 L 400.000 196.203 397.403 196.373 C 395.975 196.466,394.550 196.592,394.237 196.652 C 393.924 196.713,392.485 196.446,391.041 196.059 C 388.698 195.431,388.042 195.366,384.953 195.454 C 376.666 195.690,369.213 195.564,366.178 195.138 C 364.494 194.901,362.337 194.628,361.385 194.530 C 358.224 194.207,356.734 193.064,357.142 191.278 C 358.172 186.768,356.285 185.985,344.073 185.856 C 338.196 185.795,336.085 186.626,336.085 189.004 C 336.085 193.464,326.514 192.784,322.779 188.059 C 320.622 185.331,316.796 183.554,312.250 183.169 C 305.534 182.601,302.853 181.260,299.059 176.573 C 298.048 175.323,296.678 173.662,296.014 172.880 C 293.302 169.688,294.594 168.410,301.465 167.485 C 303.589 167.199,306.285 166.821,307.457 166.646 C 311.277 166.074,337.823 166.300,343.542 166.953 C 348.441 167.512,351.912 168.351,354.267 169.544 C 356.858 170.857,359.056 171.524,362.505 172.046 C 366.234 172.609,368.077 173.035,370.573 173.911 C 376.501 175.993,394.414 177.358,397.071 175.931 C 397.583 175.655,398.422 175.354,398.935 175.260 L 399.867 175.091 399.938 168.798 L 400.010 162.505 398.074 162.302 C 397.009 162.190,395.779 162.061,395.340 162.016 C 391.362 161.607,385.880 161.620,381.646 162.047 C 378.700 162.344,376.285 162.450,375.031 162.336 C 372.063 162.067,365.359 160.924,362.474 160.194 C 355.766 158.498,353.040 158.116,344.302 157.652 C 337.793 157.305,335.737 156.974,327.860 155.005 C 319.677 152.958,318.185 152.766,312.250 152.987 L 307.457 153.166 301.334 151.944 C 295.592 150.798,288.824 149.113,284.093 147.652 C 279.241 146.153,276.859 146.256,272.981 148.133 C 269.915 149.617,269.310 149.586,265.357 147.745 C 260.720 145.584,259.673 145.363,253.129 145.167 C 246.639 144.973,246.831 145.035,243.142 141.957 C 238.635 138.197,234.685 137.923,229.944 141.042 C 226.454 143.339,224.354 143.271,225.424 140.898 C 226.062 139.483,225.639 138.182,224.240 137.256 C 221.679 135.561,213.008 134.849,208.256 135.944 C 205.085 136.674,200.104 136.639,194.274 135.846 C 190.428 135.323,188.425 135.221,180.959 135.169 C 172.823 135.112,171.963 135.061,169.374 134.480 C 165.162 133.534,162.701 133.625,159.627 134.839 C 156.286 136.158,154.556 136.372,147.872 136.290 C 142.427 136.223,141.884 136.261,138.881 136.928 C 135.861 137.600,135.161 137.648,126.099 137.812 C 106.926 138.160,103.132 137.307,97.001 131.272 C 92.589 126.928,89.411 125.948,83.755 127.188 M176.991 144.978 C 182.240 145.351,183.780 145.791,184.688 147.175 C 186.283 149.610,182.972 150.829,174.700 150.852 L 170.040 150.866 166.977 149.761 C 165.293 149.154,163.239 148.463,162.412 148.226 C 158.268 147.035,160.397 145.351,166.578 144.931 C 171.484 144.598,171.646 144.598,176.991 144.978 M137.501 150.233 C 139.253 151.135,139.637 152.072,138.729 153.226 C 137.231 155.131,132.220 153.052,133.057 150.873 C 133.371 150.053,136.325 149.627,137.501 150.233 M50.831 172.832 C 48.272 173.283,47.740 174.384,49.249 176.104 C 51.015 178.115,54.285 179.227,58.445 179.230 C 63.855 179.234,66.297 180.108,69.639 183.239 C 72.250 185.686,72.880 186.067,75.122 186.557 C 78.164 187.222,79.486 187.688,83.115 189.372 C 89.979 192.557,92.991 193.137,96.093 191.873 C 98.412 190.928,98.163 190.002,94.509 185.992 C 93.428 184.806,91.909 183.100,91.134 182.202 C 88.490 179.139,86.780 178.328,80.668 177.236 C 78.558 176.858,75.393 176.143,73.635 175.646 C 71.877 175.148,68.822 174.285,66.844 173.727 L 63.249 172.713 57.656 172.664 C 54.581 172.636,51.509 172.712,50.831 172.832 M106.631 172.879 C 106.341 173.349,107.533 174.168,108.507 174.168 C 109.672 174.168,109.832 173.922,109.144 173.189 C 108.516 172.520,106.971 172.330,106.631 172.879 M120.107 175.951 C 117.796 176.178,117.540 176.471,118.542 177.745 C 119.831 179.384,120.799 179.786,129.161 182.161 C 132.310 183.056,136.325 184.248,138.083 184.811 C 141.995 186.064,143.286 186.321,147.537 186.697 C 150.832 186.988,150.889 187.004,153.171 188.321 C 158.707 191.516,162.001 192.118,166.612 190.777 C 170.659 189.601,173.698 190.033,178.548 192.472 C 181.293 193.852,184.884 193.979,184.385 192.679 C 184.162 192.099,181.708 190.992,179.893 190.653 C 177.385 190.184,170.917 188.101,167.007 186.502 C 161.438 184.224,158.721 183.838,154.977 184.793 C 150.801 185.858,150.953 185.881,147.660 183.714 C 143.675 181.091,137.470 178.976,130.598 177.897 C 129.588 177.738,127.503 177.268,125.965 176.851 C 122.905 176.023,121.528 175.811,120.107 175.951 M230.613 179.451 C 229.363 180.463,230.697 181.083,234.249 181.140 C 236.954 181.183,237.394 181.046,236.598 180.409 C 234.819 178.982,231.790 178.498,230.613 179.451 M303.417 184.700 C 312.790 185.892,317.394 190.903,308.993 190.769 C 305.099 190.706,300.990 189.142,298.145 186.637 C 295.623 184.417,297.056 183.891,303.417 184.700 M105.193 194.411 C 105.193 194.559,105.778 195.548,106.493 196.608 C 107.208 197.668,108.339 199.434,109.006 200.533 C 109.673 201.631,110.836 203.249,111.590 204.128 C 112.344 205.007,113.488 206.824,114.134 208.167 C 115.763 211.558,115.622 211.454,124.101 215.534 C 125.493 216.203,127.650 217.420,128.895 218.237 C 132.544 220.632,136.527 222.530,142.281 224.616 C 145.245 225.690,149.517 227.251,151.774 228.084 C 160.915 231.457,170.974 233.385,172.340 232.026 C 173.142 231.227,168.458 227.876,162.450 224.950 C 160.326 223.915,157.390 222.418,155.925 221.623 C 154.461 220.827,151.043 219.059,148.330 217.694 C 138.767 212.880,138.720 211.423,148.028 208.414 C 151.949 207.146,152.148 207.163,158.382 209.302 C 161.340 210.317,165.054 211.406,166.634 211.723 C 168.214 212.039,171.043 212.823,172.920 213.465 C 178.337 215.318,182.247 215.624,183.898 214.325 C 188.650 210.588,185.627 206.596,178.110 206.683 C 173.042 206.742,172.047 206.666,170.317 206.089 C 167.923 205.291,166.567 204.400,164.654 202.373 C 162.028 199.589,158.908 198.376,153.138 197.894 C 148.015 197.465,146.888 197.974,149.186 199.676 C 155.436 204.308,154.014 206.787,146.162 204.948 C 143.012 204.210,142.088 204.070,138.216 203.748 C 136.678 203.620,133.682 203.095,131.558 202.582 C 129.434 202.069,126.509 201.376,125.059 201.042 C 123.608 200.709,120.552 199.675,118.268 198.744 C 109.394 195.128,105.193 193.736,105.193 194.411 M399.012 194.460 C 397.994 194.726,398.074 195.348,399.152 195.555 C 400.022 195.722,400.062 195.688,399.953 194.878 C 399.875 194.294,399.789 194.256,399.012 194.460 M358.189 217.849 C 358.189 218.132,360.511 219.707,360.930 219.707 C 361.062 219.707,361.516 219.954,361.939 220.255 C 363.162 221.126,363.889 220.564,362.829 219.568 C 361.410 218.233,358.189 217.040,358.189 217.849 M176.764 232.674 C 175.211 233.079,177.509 234.443,182.923 236.327 C 184.375 236.832,186.864 237.905,188.454 238.709 C 190.044 239.514,192.954 240.673,194.921 241.285 C 197.530 242.096,199.797 243.067,203.310 244.878 C 208.637 247.625,211.335 248.661,216.153 249.808 C 217.933 250.232,220.629 250.950,222.145 251.403 C 224.090 251.985,225.879 252.304,228.229 252.488 C 230.060 252.631,233.176 253.045,235.153 253.407 C 239.193 254.148,245.650 254.581,252.779 254.589 C 257.556 254.594,261.523 255.184,271.505 257.372 C 273.840 257.884,275.624 257.892,277.475 257.399 C 281.222 256.402,279.976 254.689,273.981 252.597 C 272.179 251.968,269.148 250.691,267.244 249.759 C 265.340 248.827,262.461 247.497,260.846 246.803 C 259.232 246.109,256.236 244.583,254.188 243.412 C 250.175 241.116,248.441 240.448,242.865 239.048 C 239.976 238.322,238.512 237.767,235.498 236.258 C 230.158 233.583,228.170 233.295,227.502 235.100 C 227.410 235.349,227.045 235.995,226.692 236.535 C 226.338 237.075,225.936 238.023,225.797 238.641 C 224.757 243.267,220.479 243.457,211.073 239.295 C 206.801 237.406,206.325 237.298,200.990 237.016 C 197.309 236.822,195.994 236.644,194.324 236.112 C 193.179 235.748,191.561 235.313,190.728 235.145 C 189.896 234.978,187.896 234.434,186.285 233.938 C 182.185 232.676,178.586 232.198,176.764 232.674 M307.324 261.515 L 306.658 261.731 307.324 261.800 C 307.690 261.837,307.390 261.939,306.658 262.026 L 305.326 262.184 306.178 262.576 C 306.647 262.791,306.912 263.041,306.768 263.130 C 306.623 263.220,307.198 263.446,308.046 263.633 C 308.894 263.821,309.707 264.064,309.854 264.173 C 310.812 264.890,313.837 264.543,313.534 263.752 C 313.447 263.526,313.086 263.231,312.731 263.096 C 312.376 262.961,312.157 262.734,312.245 262.592 C 312.333 262.449,312.071 262.259,311.662 262.170 C 311.253 262.080,310.619 261.905,310.253 261.779 C 309.115 261.389,308.017 261.291,307.324 261.515 " stroke="none" fill="#9a7664" fill-rule="evenodd"></path></g></svg>